<svg xmlns="http://www.w3.org/2000/svg" viewBox="0 0 200 200">
  <!-- Background circle with soft gradient -->
  <defs>
    <linearGradient id="bgGradient" x1="0%" y1="0%" x2="100%" y2="100%">
      <stop offset="0%" style="stop-color:#E6F3FF;stop-opacity:1" />
      <stop offset="100%" style="stop-color:#B0D4FF;stop-opacity:1" />
    </linearGradient>
  </defs>
  
  <!-- Background -->
  <circle cx="100" cy="100" r="95" fill="url(#bgGradient)" />
  
  <!-- Frying Pan -->
  <g transform="translate(100, 100)">
    <!-- Pan base -->
    <path d="M-50 20 Q0 0, 50 20 L50 50 Q0 70, -50 50 Z" 
          fill="#AAAAAA" 
          stroke="#333333" 
          stroke-width="3"/>
    
    <!-- Pan handle -->
    <rect x="50" y="30" width="60" height="10" 
          fill="#555555" 
          transform="rotate(30 50 30)"
          rx="3" ry="3"/>
  </g>
  
  <!-- Utensils/Ingredients -->
  <g transform="translate(120, 130) rotate(-15)">
    <path d="M-20 0 L20 0 M0 -15 L0 15" 
          stroke="#E74C3C" 
          stroke-width="6" 
          stroke-linecap="round"/>
    <circle cx="0" cy="0" r="5" fill="#2ECC71"/>
  </g>
  
  <!-- Steam/Cooking Vapor -->
  <path d="M80 60 Q90 40, 100 60 T120 60" 
        fill="none" 
        stroke="#FFFFFF" 
        stroke-width="3" 
        stroke-linecap="round"/>
  <path d="M110 50 Q120 30, 130 50 T150 50" 
        fill="none" 
        stroke="#FFFFFF" 
        stroke-width="3" 
        stroke-linecap="round"/>
</svg>
